<svg width="60" height="61" viewBox="0 0 60 61" fill="none" xmlns="http://www.w3.org/2000/svg">
<g id="ic_full-time">
<path id="Combined Shape" fill-rule="evenodd" clip-rule="evenodd" d="M12.9274 0C5.78772 0 0 5.93816 0 13.2635C0 20.5887 5.78772 26.5269 12.9274 26.5269C15.4445 26.5269 17.7936 25.7888 19.7803 24.5121C19.8409 24.8031 19.9175 25.1188 20.0118 25.4611C20.7674 28.2018 21.4712 28.971 22.0034 29.0144C22.5968 32.9534 24.7065 38.069 31.3651 38.5928C37.9204 38.3307 39.9531 33.3344 40.6252 29.4568C41.1686 29.8359 42.0716 29.6376 43.0638 26.0379C43.8711 23.1115 43.3799 22.1308 42.6831 21.8843C44.9491 10.7531 39.7739 10.3799 39.7739 10.3799C39.7739 10.3799 38.9931 8.83868 36.9369 7.67414C35.5592 6.83691 33.6411 6.18652 31.109 6.41136C30.2894 6.45053 29.5151 6.61328 28.7884 6.86524L28.7872 6.86584C27.8566 7.18832 27.0048 7.65847 26.2346 8.20819C25.8694 8.44563 25.5122 8.70353 25.1659 8.98013C23.4298 3.75673 18.6063 0 12.9274 0ZM54 48.5161C48.2772 54.3762 40.3784 58 31.6542 58C22.9299 58 15.0311 54.3762 9.30774 48.5161C9.43582 45.9839 10.2706 42.7682 13.5412 41.9153C19.1488 40.4524 23.7054 37.1613 23.7054 37.1613L27.9277 50.8621L28.5064 52.7204L30.3981 47.2214C25.6582 40.4361 31.6542 40.7007 31.6542 40.7007C31.6542 40.7007 37.6501 40.4367 32.9096 47.222L34.7837 52.6782L35.3677 50.838L35.3777 50.8675L36.0474 48.6958L39.6023 37.1607C39.6023 37.1607 44.1589 40.4518 49.7665 41.9147C53.0365 42.7676 53.8719 45.9833 54 48.5161ZM12.9274 3.41423C7.6999 3.41423 3.46239 7.76188 3.46239 13.1253C3.46239 18.4887 7.6999 22.8363 12.9274 22.8363C18.155 22.8363 22.3925 18.4887 22.3925 13.1253C22.3925 7.76188 18.155 3.41423 12.9274 3.41423ZM5.39235 13.1253C5.39235 8.85667 8.76587 5.39436 12.9274 5.39436C17.0895 5.39436 20.462 8.85667 20.462 13.1253C20.462 17.3939 17.0895 20.8557 12.9274 20.8557C8.76587 20.8557 5.39235 17.3945 5.39235 13.1253ZM13.5989 15.6538C13.5741 15.657 13.5493 15.6603 13.5237 15.6603H9.55875C8.82135 15.6603 8.21699 15.0789 8.21699 14.3698C8.21699 13.6608 8.82081 13.0811 9.55821 13.0811H12.4389V8.64777C12.4389 7.90115 13.0044 7.29103 13.6955 7.29103C14.3861 7.29103 14.9516 7.9006 14.9516 8.64777V14.2974C14.9516 15.0435 14.3861 15.6542 13.6955 15.6542C13.6866 15.6542 13.678 15.6528 13.6694 15.6514C13.6608 15.65 13.6522 15.6487 13.6433 15.6487C13.6284 15.6499 13.6136 15.6518 13.5989 15.6538Z" fill="#FED693"/>
</g>
</svg>
