<svg width="60" height="60" viewBox="0 0 60 60" fill="none" xmlns="http://www.w3.org/2000/svg">
<g id="ic_learning">
<path id="ic_learning_2" fill-rule="evenodd" clip-rule="evenodd" d="M4 9.76676C4 6.04498 7.02969 3 10.7328 3H47.2672C50.9703 3 54 6.04498 54 9.76676V38.2091C54 41.9309 50.9703 44.9759 47.2672 44.9759H33.2024V50.0866H44.8016V53H13.7179V50.0866H25.3185V44.9759H10.7328C8.52119 44.9759 7.47368 44.1214 7.47368 44.1214C5.40756 42.9631 4 40.7441 4 38.2091V9.76676ZM12.3576 42.2687H47.2672C49.4939 42.2687 51.3063 40.4471 51.3063 38.2091V9.76676C51.3063 7.52745 49.4939 5.70589 47.2672 5.70589H10.7355C8.50742 5.70589 6.69501 7.52745 6.69501 9.76676V38.2078C6.69501 39.7961 7.61673 41.1619 8.94332 41.8279C8.94332 41.8279 9.59322 42.2687 12.3576 42.2687Z" fill="#FED693"/>
</g>
</svg>
