<svg width="60" height="60" viewBox="0 0 60 60" fill="none" xmlns="http://www.w3.org/2000/svg">
<g id="ic_lunch">
<path id="Combined Shape" fill-rule="evenodd" clip-rule="evenodd" d="M9.08172 4C8.69418 4 8.38129 4.31449 8.38129 4.6941C8.38129 4.69552 8.38193 4.69631 8.38264 4.69718C8.3835 4.69824 8.38447 4.69942 8.38447 4.70204H8.38129V14.4845C8.38129 14.8625 8.07158 15.1834 7.68086 15.1834C7.29333 15.1834 6.98679 14.8625 6.98679 14.4845V4.70204H6.98361C6.98361 4.69942 6.98458 4.69824 6.98544 4.69718C6.98615 4.69631 6.98679 4.69552 6.98679 4.6941C6.98679 4.31608 6.6739 4 6.28636 4C5.90042 4 5.5907 4.31449 5.5907 4.6941C5.5907 4.69552 5.59135 4.69631 5.59205 4.69718C5.59292 4.69824 5.59388 4.69942 5.59388 4.70204H5.58594V14.4845C5.58594 14.8625 5.27305 15.1834 4.89028 15.1834C4.49956 15.1834 4.19462 14.8625 4.18667 14.4845V4.70204H4.1835C4.1835 4.69942 4.18446 4.69824 4.18533 4.69718C4.18603 4.69631 4.18667 4.69552 4.18667 4.6941C4.18667 4.31608 3.88014 4 3.48625 4C3.10348 4 2.79376 4.31449 2.79376 4.6941C2.79376 4.69552 2.79441 4.69631 2.79511 4.69718C2.79598 4.69824 2.79694 4.69942 2.79694 4.70204H2.79376V14.4845C2.79376 14.8625 2.47929 15.1834 2.09334 15.1834C1.7058 15.1834 1.39609 14.8625 1.39609 14.4845V4.70204H1.39291C1.39291 4.69942 1.39387 4.69824 1.39474 4.69718C1.39545 4.69631 1.39609 4.69552 1.39609 4.6941C1.39609 4.31608 1.0832 4 0.692485 4C0.312889 4 0 4.31449 0 4.6941C0 4.69552 0.000641788 4.69631 0.00134841 4.69718C0.00221385 4.69824 0.00317654 4.69942 0.00317654 4.70204H0V17.6723C0 19.0112 1.17849 20.131 2.79376 20.5614V43.8256C2.79376 44.9835 3.73878 45.9254 4.89028 45.9254C6.0386 45.9254 6.98679 44.9835 6.98679 43.8256V20.5614C8.60365 20.131 9.78055 19.0096 9.78055 17.6723V4.70204H9.77738C9.77738 4.69942 9.77834 4.69824 9.77921 4.69718C9.77991 4.69631 9.78055 4.69552 9.78055 4.6941C9.78214 4.31449 9.46925 4 9.08172 4ZM59.9787 12.1007L59.9787 12.1005C59.9741 12.0287 59.9696 11.9566 59.9666 11.8828C59.9688 11.8636 59.9744 11.8463 59.98 11.8292C59.9869 11.8081 59.9936 11.7874 59.9936 11.7637V6.17441C59.9936 5.02129 59.0439 4.07306 57.8924 4.07306H56.4995C54.5729 4.07306 53.0053 7.85327 53.0053 12.4626V13.8555V16.6573V25.1136C54.3759 25.3899 55.4496 26.4636 55.726 27.8344H55.807V43.905C55.807 45.0645 56.7488 45.9984 57.8924 45.9984H57.9003C59.0455 45.9984 60 45.0645 60 43.905V27.8344V18.7507V13.8555H59.9936V12.4626C59.9936 12.3394 59.9862 12.2206 59.9787 12.1007ZM9.99656 26.003C9.99656 14.9594 18.9512 5.9997 29.996 5.9997C41.0408 5.9997 50.0003 14.9578 49.9987 26.003C49.9987 37.0482 41.0408 46 29.996 46C18.9512 46 9.99656 37.0482 9.99656 26.003ZM29.9992 41.5559C21.4099 41.5559 14.4437 34.5958 14.4437 26.0014C14.4437 17.4086 21.4099 10.4406 29.9992 10.4406C38.5901 10.4406 45.5563 17.4086 45.5563 26.0014C45.5563 34.5974 38.5901 41.5559 29.9992 41.5559ZM16.2448 26.0014C16.2448 18.4156 22.4168 12.2434 29.9992 12.2434C37.5832 12.2434 43.7552 18.4156 43.7536 26.0014C43.7536 33.5889 37.5832 39.7531 29.9992 39.7531C22.4168 39.7531 16.2448 33.5889 16.2448 26.0014Z" fill="#FED693"/>
</g>
</svg>
