<svg width="61" height="61" viewBox="0 0 61 61" fill="none" xmlns="http://www.w3.org/2000/svg">
<g id="ic_retreats">
<path id="Combined Shape" fill-rule="evenodd" clip-rule="evenodd" d="M17.746 12.1951H18.1624L17.1333 14.7079L20.0612 12.1951H22.9278V10.9601C22.9278 10.2307 23.5125 9.63827 24.234 9.63827H35.8469V1.32288C35.8469 0.59244 35.2622 0 34.5412 0H17.746C17.0245 0 16.4398 0.59244 16.4398 1.32288V10.8727C16.4398 11.6031 17.0245 12.1951 17.746 12.1951ZM14.4835 14.6983C14.4835 17.2915 12.4069 19.3938 9.84538 19.3938C7.28384 19.3938 5.2073 17.2915 5.2073 14.6983C5.2073 12.105 7.28384 10.0027 9.84538 10.0027C12.4069 10.0027 14.4835 12.105 14.4835 14.6983ZM18.8669 34.8675C18.7421 33.7812 17.8333 32.9613 16.7528 32.9613H16.7518L13.0624 32.9643V27.831C14.3002 28.93 15.6993 29.623 17.5268 29.623C18.6412 29.623 19.9169 29.3642 21.4099 28.7859C22.3391 28.4255 22.8035 27.372 22.4474 26.4318C22.0924 25.4921 21.0509 25.022 20.1227 25.3814C16.4872 26.7912 15.7702 26.0037 12.5766 21.5846C12.5728 21.5791 12.5685 21.5747 12.564 21.5703L12.564 21.5703C12.5604 21.5666 12.5567 21.5629 12.5531 21.5583C11.9415 20.5913 10.869 19.9397 9.84388 19.6855C9.84388 19.6855 9.35606 19.5369 8.83628 19.5485C8.33896 19.5596 7.78523 19.6774 7.78523 19.6774L7.77175 19.6794C6.21141 20.0661 4.54971 21.3531 4.54971 23.2841L4.5507 33.6483C4.5507 35.9012 6.76065 37.2954 8.80632 37.2944C8.89194 37.2944 8.97727 37.2884 9.06275 37.2825L9.06284 37.2825C9.09149 37.2805 9.12015 37.2785 9.14884 37.2767L14.8579 37.2716L16.0758 47.9153C16.2016 49.0128 17.1223 49.8216 18.1873 49.8216C18.2692 49.8216 18.3521 49.8165 18.436 49.8069C19.6024 49.6699 20.4402 48.6003 20.3044 47.4184L18.8669 34.8675ZM12.4952 37.8929C13.4898 37.8929 14.2962 38.7093 14.2962 39.7157C14.2962 40.4062 13.9158 41.0072 13.358 41.3166C13.6896 41.9288 13.8778 42.6299 13.8778 43.3755V48.4724C13.8778 49.3156 13.2027 49.9995 12.3699 49.9995C11.537 49.9995 10.862 49.3156 10.862 48.4724V43.3755C10.862 42.6865 10.3077 42.1264 9.62818 42.1264H4.59414C3.91309 42.1264 3.36035 42.687 3.36035 43.3755V48.4734C3.36035 49.3166 2.68479 50 1.85194 50C1.02009 50 0.345023 49.3166 0.345023 48.4734V43.376C0.345023 42.6172 0.540752 41.904 0.884277 41.2843C0.356008 40.9663 0 40.383 0 39.7157V23.4337C0 22.4278 0.805386 21.6114 1.80001 21.6114C2.79463 21.6114 3.60102 22.4278 3.60102 23.4337V37.8929H12.4952ZM54.7912 14.6983C54.7912 17.2915 52.7147 19.3938 50.1531 19.3938C47.5916 19.3938 45.515 17.2915 45.515 14.6983C45.515 12.105 47.5916 10.0027 50.1531 10.0027C52.7147 10.0027 54.7912 12.105 54.7912 14.6983ZM55.4483 33.6478C55.4483 35.9007 53.2403 37.2939 51.1927 37.2939C51.0924 37.2939 50.9902 37.286 50.8898 37.2782L50.8897 37.2782H50.8896H50.8896H50.8895L50.8507 37.2752L45.1416 37.2711L43.9227 47.9143C43.7969 49.0113 42.8772 49.8205 41.8112 49.8205C41.7293 49.8205 41.6474 49.8165 41.5645 49.8064C40.3961 49.6689 39.5598 48.5998 39.6951 47.4174L41.1321 34.8665C41.2559 33.7797 42.1647 32.9603 43.2452 32.9603H43.2472L46.9366 32.9633V27.8305C45.6983 28.9295 44.2997 29.6225 42.4722 29.6225C41.3573 29.6225 40.0821 29.3647 38.5896 28.7854C37.6604 28.425 37.196 27.3715 37.5511 26.4313C37.9071 25.4916 38.9476 25.0215 39.8763 25.3809C43.5118 26.7907 44.2288 26.0037 47.4224 21.5841C47.4253 21.5802 47.4283 21.5769 47.4313 21.5738L47.4391 21.5656C47.4413 21.5632 47.4436 21.5607 47.4459 21.5578C48.058 20.5908 49.13 19.9392 50.1556 19.685C50.1556 19.685 50.6434 19.5364 51.1632 19.548C51.6595 19.5596 52.2143 19.6769 52.2143 19.6769L52.2273 19.6789C53.7876 20.0656 55.4483 21.3526 55.4483 23.2836V33.6478ZM60 39.7157V23.4337C60 22.4278 59.1936 21.6114 58.2 21.6114C57.2054 21.6114 56.3995 22.4278 56.3995 23.4337V37.8929H47.5058C46.5112 37.8929 45.7048 38.7093 45.7048 39.7157C45.7048 40.4052 46.0843 41.0072 46.643 41.3161C46.3124 41.9283 46.1242 42.6299 46.1242 43.3745V48.4714C46.1242 49.3145 46.7993 49.9985 47.6321 49.9985C48.464 49.9985 49.1405 49.3145 49.1405 48.4714V43.3755C49.1405 42.687 49.6928 42.1264 50.3748 42.1264H55.4084C56.0889 42.1264 56.6426 42.6865 56.6426 43.3755V48.4724C56.6426 49.3156 57.3177 49.9995 58.1501 49.9995C58.9829 49.9995 59.6585 49.3156 59.6585 48.4724V43.3755C59.6585 42.6167 59.4617 41.904 59.1192 41.2838C59.6445 40.9658 60 40.3835 60 39.7157ZM39.6362 30.0006C40.5889 30.0006 41.3613 30.7831 41.3613 31.7471C41.3613 32.7116 40.5889 33.4936 39.6362 33.4936H37.2689V49.0047H21.9896V33.4936H19.6229C18.6702 33.4936 17.8977 32.7116 17.8977 31.7471C17.8977 30.7831 18.6702 30.0006 19.6229 30.0006H39.6362ZM31.4021 5.56095C31.4021 4.8578 30.8393 4.2871 30.1443 4.2871C29.4493 4.2871 28.8865 4.8573 28.8865 5.56095C28.8865 6.2646 29.4498 6.83479 30.1443 6.83479C30.8393 6.83479 31.4021 6.2646 31.4021 5.56095ZM26.2122 4.2871C26.9073 4.2871 27.47 4.8578 27.47 5.56095C27.47 6.2646 26.9073 6.83479 26.2122 6.83479C25.5177 6.83479 24.9545 6.2646 24.9545 5.56095C24.9545 4.8573 25.5177 4.2871 26.2122 4.2871ZM23.4006 5.56095C23.4006 4.8578 22.8374 4.2871 22.1429 4.2871C21.4483 4.2871 20.8851 4.8573 20.8851 5.56095C20.8851 6.2646 21.4483 6.83479 22.1429 6.83479C22.8374 6.83479 23.4006 6.2646 23.4006 5.56095ZM23.9024 11.9474V21.4977C23.9024 22.2276 24.4881 22.8195 25.2086 22.8195H39.6886L42.617 25.3319L41.5875 22.8195H42.0044C42.7264 22.8195 43.3111 22.2276 43.3111 21.4977V11.9474C43.3111 11.2169 42.7264 10.625 42.0044 10.625H25.2086C24.4881 10.625 23.9024 11.2169 23.9024 11.9474ZM38.8652 16.4291C38.8652 15.7259 38.302 15.1552 37.607 15.1552C36.9129 15.1552 36.3492 15.7254 36.3492 16.4291C36.3492 17.1327 36.9124 17.7029 37.607 17.7029C38.302 17.7029 38.8652 17.1327 38.8652 16.4291ZM33.6749 15.1552C34.3705 15.1552 34.9332 15.7259 34.9332 16.4291C34.9332 17.1327 34.3705 17.7029 33.6749 17.7029C32.9804 17.7029 32.4172 17.1327 32.4172 16.4291C32.4172 15.7254 32.9809 15.1552 33.6749 15.1552ZM30.8638 16.4291C30.8638 15.7259 30.3006 15.1552 29.606 15.1552C28.9115 15.1552 28.3483 15.7254 28.3483 16.4291C28.3483 17.1327 28.911 17.7029 29.606 17.7029C30.3011 17.7029 30.8638 17.1327 30.8638 16.4291Z" fill="#FED693"/>
</g>
</svg>
