<svg width="60" height="60" viewBox="0 0 60 60" fill="none" xmlns="http://www.w3.org/2000/svg">
<g id="ic_senior-team">
<path id="ic_senior-team_2" fill-rule="evenodd" clip-rule="evenodd" d="M17.1 19.178C17.7 20.2762 18.9 21.8014 20.88 21.9234H20.94C21.3 21.9234 21.6 21.6184 21.6 21.2523C21.6 21.1303 21.54 21.0083 21.48 20.8863L21.48 20.8862C21.4739 20.8676 21.4659 20.8446 21.4565 20.8173C21.373 20.5759 21.1739 20 21.12 19.178H23.16C23.52 19.178 23.82 18.8729 23.82 18.5069V6.6711C23.82 6.30505 23.52 6 23.16 6H6.36C6 6 5.7 6.30505 5.7 6.6711V18.5069C5.7 18.8729 6 19.178 6.36 19.178H17.1ZM41.82 24.1197C41.82 23.5707 42 23.0826 42.3 22.6555C41.46 22.2285 40.56 21.5573 40.5 21.4963C38.88 20.1541 38.04 18.3239 38.04 16.3716C38.04 12.406 41.76 9.23349 46.32 9.23349C50.88 9.23349 54.6 12.467 54.6 16.3716C54.6 20.2762 51 23.3876 46.56 23.5096C46.62 23.6927 46.62 23.9367 46.62 24.1197C46.62 25.4619 45.54 26.5601 44.22 26.5601C42.9 26.5601 41.82 25.4619 41.82 24.1197ZM31.2 22.3505C33.6853 22.3505 35.7 20.3019 35.7 17.7748C35.7 15.2477 33.6853 13.1991 31.2 13.1991C28.7147 13.1991 26.7 15.2477 26.7 17.7748C26.7 20.3019 28.7147 22.3505 31.2 22.3505ZM57 31.0138C57 33.7767 54.7972 36.0165 52.08 36.0165C49.3628 36.0165 47.16 33.7767 47.16 31.0138C47.16 28.2508 49.3628 26.011 52.08 26.011C54.7972 26.011 57 28.2508 57 31.0138ZM7.92 37.1147C10.6372 37.1147 12.84 34.8749 12.84 32.1119C12.84 29.349 10.6372 27.1092 7.92 27.1092C5.20276 27.1092 3 29.349 3 32.1119C3 34.8749 5.20276 37.1147 7.92 37.1147ZM15 51.6349L11.22 48.2184C11.1 48.1574 11.04 48.0353 11.04 47.9133L9.84 42.1785L9.78 41.9344C9.72 41.6294 9.9 41.3243 10.2 41.2633C10.5 41.2023 10.8 41.3853 10.86 41.6904L12.06 47.4863L12.12 47.5473V41.3243C12.12 39.6771 10.8 38.3959 9.24 38.3959H6.48C4.86 38.3959 3.6 39.7381 3.6 41.3243V53.2211H10.92L8.58 51.3909C8.1 51.0248 7.68 50.4757 7.5 49.8656L5.82 44.6798C5.7 44.3748 5.88 44.0698 6.18 43.9477C6.42 43.8867 6.72 43.9477 6.84 44.1918C6.84 44.2223 6.855 44.2375 6.87 44.2528C6.885 44.268 6.9 44.2833 6.9 44.3138L8.58 49.4996C8.7 49.8656 8.94 50.2317 9.24 50.4147L12.12 52.6721L13.26 53.5262C13.56 53.7702 13.86 53.8922 14.16 53.9532C14.76 54.0753 15.18 53.9532 15.42 53.6482C15.66 53.4042 15.72 53.0381 15.6 52.611C15.54 52.306 15.3 51.9399 15 51.6349ZM47.82 40.2872C47.82 38.7009 49.08 37.3587 50.7 37.3587H53.46C55.08 37.3587 56.34 38.7009 56.34 40.2872V52.184H47.76V47.9743L51.78 45.2289C52.08 45.0459 52.14 44.6798 51.96 44.4358C51.78 44.1918 51.54 44.1308 51.3 44.1918C51.3 44.1918 51.24 44.1918 51.18 44.2528L46.74 47.3032C46.44 47.5473 46.02 47.6083 45.6 47.6083H40.56C40.2 47.6083 39.9 47.4863 39.6 47.3642C39.06 47.1202 38.82 46.7542 38.82 46.3271C38.82 45.961 39 45.656 39.3 45.412C39.6 45.1679 40.02 44.9849 40.5 44.9849L45.48 44.6798C45.6 44.6798 45.72 44.6188 45.84 44.5578L50.28 40.7753L50.46 40.5922C50.7 40.3482 50.7 39.9821 50.52 39.7381C50.28 39.4941 49.92 39.4941 49.68 39.6771L47.82 41.2633V40.2872ZM45.6 48.8285H40.56C40.02 48.8285 39.54 48.7065 39.06 48.4624C38.16 47.9743 37.68 47.2422 37.68 46.3881C37.68 45.717 37.98 45.0459 38.58 44.5578C39.06 44.1308 39.72 43.8867 40.44 43.8257L45.24 43.5207L46.68 42.3005V40.3482C46.68 39.067 47.28 37.9078 48.18 37.1147C44.16 34.7353 37.92 33.2101 30.9 33.2101C22.86 33.2101 15.78 35.2234 11.94 38.2739C12.78 39.006 13.32 40.1652 13.32 41.3853V48.6454L15.72 50.7808L16.26 51.3298C20.16 52.9771 25.26 53.9532 30.9 53.9532C37.08 53.9532 42.66 52.7941 46.68 50.8418V48.7065C46.38 48.8285 46.08 48.8895 45.72 48.8895C45.6854 48.8543 45.6708 48.8394 45.653 48.8331C45.64 48.8285 45.6254 48.8285 45.6 48.8285ZM15.3 25.5229C15.66 25.5229 16.02 25.584 16.32 25.828L21.54 30.5257L25.86 24.7298C26.04 24.4858 26.28 24.3028 26.52 24.1807C26.94 23.7537 27.54 23.5096 28.2 23.5096H28.56L30.24 28.5124L30.9 25.0349L30.42 23.6317H32.1L31.68 25.0349L32.4 28.5734L34.08 23.5707H34.44C34.98 23.5707 35.52 23.7537 35.94 24.0587C36.3 24.2418 36.66 24.4858 36.9 24.7908L41.4 30.7087L41.88 31.3188C42.42 31.9899 42.54 32.8441 42.24 33.5762C40.92 33.2101 39.54 32.9051 38.1 32.661L38.28 32.539L37.02 30.8918V32.539C35.04 32.295 33 32.173 30.84 32.173C28.98 32.173 27.24 32.295 25.5 32.478V31.1968L24.42 32.661C22.44 32.9661 20.52 33.3321 18.78 33.8812L14.22 28.7564C13.44 28.1463 13.32 26.9872 13.92 26.194C13.92 26.194 14.34 25.645 14.82 25.584C15 25.5229 15.12 25.5229 15.3 25.5229ZM10.8 13.5651C10.32 13.5651 9.84 13.1991 9.84 12.65C9.84 12.1009 10.26 11.6739 10.8 11.6739C11.34 11.6739 11.76 12.0399 11.76 12.589C11.76 13.1381 11.28 13.5651 10.8 13.5651ZM14.64 11.6739C14.1 11.6739 13.68 12.1009 13.68 12.65C13.68 13.1991 14.1 13.6262 14.64 13.6262C15.18 13.6262 15.6 13.1991 15.6 12.65C15.6 12.1009 15.12 11.6739 14.64 11.6739ZM19.5 12.589C19.5 13.1381 19.08 13.5651 18.54 13.5651C18.06 13.5651 17.58 13.1381 17.58 12.589C17.58 12.0399 18 11.6128 18.54 11.6128C19.08 11.6128 19.5 12.0399 19.5 12.589ZM44.88 31.0138C45.84 31.0138 46.62 30.2207 46.62 29.2445C46.62 28.2684 45.84 27.4752 44.88 27.4752C43.92 27.4752 43.14 28.2684 43.14 29.2445C43.14 30.2207 43.92 31.0138 44.88 31.0138ZM51.18 16.5546C51.18 17.1037 50.76 17.5307 50.22 17.5307C49.68 17.5307 49.26 17.1037 49.26 16.5546C49.26 16.0055 49.68 15.5784 50.22 15.5784C50.76 15.5784 51.18 16.0055 51.18 16.5546ZM46.32 17.5307C46.86 17.5307 47.28 17.1037 47.28 16.5546C47.28 16.0055 46.86 15.5784 46.32 15.5784C45.78 15.5784 45.36 16.0055 45.36 16.5546C45.36 17.1037 45.78 17.5307 46.32 17.5307ZM43.44 16.5546C43.44 17.1037 43.02 17.5307 42.48 17.5307C41.94 17.5307 41.52 17.1037 41.52 16.5546C41.52 16.0055 41.94 15.5784 42.48 15.5784C43.02 15.5784 43.44 16.0055 43.44 16.5546Z" fill="#FED693"/>
</g>
</svg>
