<svg width="60" height="60" viewBox="0 0 60 60" fill="none" xmlns="http://www.w3.org/2000/svg">
<g id="ic_time">
<path id="Shape" fill-rule="evenodd" clip-rule="evenodd" d="M30 10.5744C21.6302 10.5744 14.8453 17.3615 14.8453 25.7292C14.8453 34.0979 21.6302 40.8828 30 40.8828C38.3709 40.8828 45.1537 34.0968 45.1537 25.7292C45.1537 17.3615 38.3709 10.5744 30 10.5744ZM37.6126 28.6184H29.6382C29.5558 28.6184 29.4778 28.6022 29.3977 28.5957C29.3619 28.5957 29.3283 28.6065 29.2926 28.6065C27.9038 28.6065 26.7663 27.4094 26.7663 25.9469V14.872C26.7663 13.4073 27.9038 12.2124 29.2926 12.2124C30.6825 12.2124 31.82 13.4084 31.82 14.872V23.5625H37.6137C39.0968 23.5625 40.3112 24.6989 40.3112 26.0888C40.3112 27.4788 39.0957 28.6184 37.6126 28.6184ZM30 0C15.6404 0 4 11.6404 4 26C4 40.3596 15.6404 52 30 52C44.3596 52 56 40.3596 56 26C56 11.6404 44.3596 0 30 0ZM30 44.7655C19.4862 44.7655 10.9637 36.2429 10.9637 25.7292C10.9637 15.2154 19.4862 6.69283 30 6.69283C40.5137 6.69283 49.0363 15.2154 49.0363 25.7292C49.0363 36.2429 40.5137 44.7655 30 44.7655Z" fill="#FED693"/>
</g>
</svg>
