<svg width="60" height="60" viewBox="0 0 60 60" fill="none" xmlns="http://www.w3.org/2000/svg">
<g id="ic_travel">
<path id="Combined Shape" fill-rule="evenodd" clip-rule="evenodd" d="M44.742 5H15.258C12.558 5 10.344 7.25523 10.344 10.0055V49.9945C10.344 52.7448 12.558 55 15.258 55C17.958 55 20.172 52.7448 20.172 49.9945H39.828C39.828 52.7448 42.042 55 44.742 55C47.442 55 49.656 52.7448 49.656 49.9945V10.0055C49.656 7.25523 47.442 5 44.742 5ZM18.93 45.044C16.878 45.044 15.258 43.3388 15.258 41.3036C15.258 39.2684 16.932 37.5633 18.93 37.5633C20.928 37.5633 22.602 39.2684 22.602 41.3036C22.602 43.3388 20.982 45.044 18.93 45.044ZM41.07 45.044C39.018 45.044 37.398 43.3388 37.398 41.3036C37.398 39.2684 39.072 37.5633 41.07 37.5633C43.068 37.5633 44.742 39.2684 44.742 41.3036C44.742 43.3388 43.068 45.044 41.07 45.044ZM44.688 32.5028H15.258V15.011H44.688V32.5028ZM3 17.5413H7.914V27.5523H3V17.5413ZM57 17.5413H52.086V27.5523H57V17.5413Z" fill="#FED693"/>
</g>
</svg>
