<svg width="60" height="60" viewBox="0 0 60 60" fill="none" xmlns="http://www.w3.org/2000/svg">
<g id="ic_tailored">
<path id="ic_plan" fill-rule="evenodd" clip-rule="evenodd" d="M41.6104 40.3537C41.6513 38.8812 42.8089 37.2614 44.2493 35.2458C46.7044 31.8103 49.9812 27.2249 49.951 20.259C49.929 14.7019 44.2309 5.4616 34.5546 4.31248C24.8751 3.15843 17.6335 5.17334 14.4703 10.8172C11.2987 16.4631 11.0587 21.414 11.3019 22.3351C11.5482 23.2562 12.5793 24.9848 12.5793 24.9848C12.5793 24.9848 7.71186 32.0651 8.01346 33.2162C8.32028 34.3663 11.6609 34.9902 11.6609 34.9902C11.6609 34.9902 11.9656 35.7888 11.3541 37.3407C10.7991 38.7545 12.1873 40.3706 12.8381 41.1282L12.8382 41.1283C12.9045 41.2055 12.9631 41.2738 13.0113 41.3321C13.268 41.6427 13.0924 42.2782 12.9002 42.9736C12.7033 43.6862 12.489 44.4618 12.7045 45.0154C13.1303 46.1082 15.1455 47.4301 17.454 47.1428C19.5414 46.8811 22.1593 46.4387 23.4125 46.2269L23.4126 46.2269L23.7709 46.1665C26.0992 51.3464 20.4836 54 20.4836 54H50C49.9969 54.001 41.434 47.4893 41.6104 40.3537ZM40.3497 33.7473C39.9072 34.1866 39.3625 34.539 38.7561 34.7789L38.9941 35.8619L37.2001 36.2153L36.959 35.1363C36.2964 35.1462 35.6524 35.0277 35.0628 34.7957L34.422 35.7188L32.89 34.7681L33.5266 33.848C33.0695 33.4284 32.6948 32.917 32.4371 32.3375L31.2922 32.5636L30.9134 30.8656L32.0603 30.6395C32.052 30.0107 32.1741 29.3966 32.4193 28.8448L31.4404 28.2416L32.4454 26.7884L33.416 27.3906C33.8668 26.9582 34.4074 26.6048 35.0221 26.3619L34.7852 25.278L36.576 24.9236L36.8161 26.0095C37.4798 25.9976 38.1216 26.1161 38.7102 26.3442L39.351 25.4241L40.8872 26.3728L40.2475 27.2958C40.7066 27.7164 41.0771 28.2268 41.3359 28.8053L42.4735 28.5802L42.8565 30.2782L41.7116 30.5023C41.7231 31.1331 41.5989 31.7442 41.3558 32.303L42.3295 32.9062L41.3234 34.3564L40.3497 33.7473ZM27.1658 22.8514L28.7093 21.9382C29.4075 22.6549 30.2434 23.2117 31.1482 23.5967L30.7423 25.2632L33.5183 25.8723L33.9274 24.2009C34.9177 24.2414 35.9259 24.0815 36.8912 23.732L37.8503 25.1911L40.2694 23.7606L39.3103 22.3025C40.0648 21.6411 40.6576 20.8503 41.0604 19.9895L42.8241 20.3715L43.468 17.7495L41.6981 17.3585C41.7356 16.4167 41.5739 15.4631 41.2013 14.5519L42.7406 13.6407L41.2295 11.3553L39.6933 12.2665C38.9868 11.5537 38.155 10.9969 37.2481 10.6109L37.6572 8.94252L34.8791 8.33341L34.4721 10.0067C33.4744 9.97021 32.4694 10.1272 31.502 10.4776L30.5398 9.01755L28.127 10.447L29.0892 11.9081C28.3357 12.5696 27.744 13.3633 27.339 14.2202L25.567 13.8381L24.9314 16.4602L26.6962 16.8501C26.6597 17.788 26.8225 18.7396 27.1961 19.6518L25.6557 20.565L27.1658 22.8514ZM40.1775 30.5714C40.1775 32.291 38.7039 33.6851 36.886 33.6851C35.0681 33.6851 33.5944 32.291 33.5944 30.5714C33.5944 28.8518 35.0681 27.4577 36.886 27.4577C38.7039 27.4577 40.1775 28.8518 40.1775 30.5714ZM34.2018 21.9412C37.0266 21.9412 39.3166 19.775 39.3166 17.1028C39.3166 14.4307 37.0266 12.2645 34.2018 12.2645C31.377 12.2645 29.0871 14.4307 29.0871 17.1028C29.0871 19.775 31.377 21.9412 34.2018 21.9412Z" fill="#FED693"/>
</g>
</svg>
