<svg width="60" height="60" viewBox="0 0 60 60" fill="none" xmlns="http://www.w3.org/2000/svg">
<g id="ic_workweek">
<path id="ic_calendar" fill-rule="evenodd" clip-rule="evenodd" d="M20.6686 0H17.1989V3.86916H7V46H53V3.86916H42.8537V0H39.384V3.86916H20.6686V0ZM39.384 3.86916H42.8537V8.59813H39.384V3.86916ZM20.6686 3.86916V8.59813H17.1989V3.86916H20.6686ZM47.7429 40.465H13.0457V14.0257H47.7429V40.465ZM34.7051 26.3855C33.7589 25.472 32.4446 24.9883 30.8149 24.9883C30.1314 24.9883 29.5531 25.0421 29.08 25.1495L28.6594 25.257L28.9749 21.8715H35.0206V18.7547H25.8206L25.1897 27.514L26.6091 28.3201C26.8077 28.2524 27.0479 28.2061 27.3166 28.1542C27.4748 28.1237 27.6429 28.0912 27.8183 28.0514C27.9085 28.0422 27.9956 28.033 28.0801 28.024C28.4883 27.9808 28.8367 27.9439 29.1851 27.9439C31.4457 27.9439 32.6023 28.8037 32.6023 30.5771C32.6023 32.4042 31.5509 33.3178 29.3429 33.3178C28.6069 33.3178 27.8183 33.2103 27.0297 32.9953C26.1886 32.7804 25.5051 32.5117 24.8743 32.1893V35.3598C26.0309 35.9509 27.5554 36.2734 29.448 36.2734C31.6034 36.2734 33.2857 35.736 34.4423 34.715C35.5989 33.6939 36.1771 32.1893 36.1771 30.2547C36.1771 28.5888 35.6514 27.2991 34.7051 26.3855Z" fill="#FED693"/>
</g>
</svg>
