<svg width="50" height="48" viewBox="0 0 50 48" fill="none" xmlns="http://www.w3.org/2000/svg">
<path id="ic_ninja" fill-rule="evenodd" clip-rule="evenodd" d="M36.184 27.5727C40.2875 24.896 42.9999 20.2647 42.9999 15C42.9999 6.71573 36.2841 0 27.9999 0C19.7156 0 12.9999 6.71573 12.9999 15C12.9999 20.2647 15.7122 24.896 19.8157 27.5727C17.7159 28.4147 15.7761 29.5711 14.0545 30.9836L5.05011 21.9792C4.26906 21.1981 3.00273 21.1981 2.22168 21.9792L0.807466 23.3934C0.0264176 24.1744 0.0264175 25.4408 0.807466 26.2218L9.9724 35.3868C7.47669 38.9471 6.0089 43.2807 5.9999 47.9567C6.74189 47.4711 13.6933 43.1014 20.6144 45.1246C27.9372 47.2654 46.8229 48.494 48.8477 45.1246C49.4408 45.8015 49.7956 46.4884 49.9839 47.1538C49.6476 38.2616 44.0336 30.7204 36.184 27.5727ZM21.9999 11C19.7907 11 17.9999 12.7909 17.9999 15C17.9999 17.2091 19.7907 19 21.9999 19H33.9999C36.209 19 37.9999 17.2091 37.9999 15C37.9999 12.7909 36.209 11 33.9999 11H21.9999ZM25.9999 15C25.9999 16.1046 25.1044 17 23.9999 17C22.8953 17 21.9999 16.1046 21.9999 15C21.9999 13.8954 22.8953 13 23.9999 13C25.1044 13 25.9999 13.8954 25.9999 15ZM31.9999 17C33.1044 17 33.9999 16.1046 33.9999 15C33.9999 13.8954 33.1044 13 31.9999 13C30.8953 13 29.9999 13.8954 29.9999 15C29.9999 16.1046 30.8953 17 31.9999 17Z" fill="#88C542"/>
</svg>
